<svg width="1368" height="1368" viewBox="0 0 1368 1368" fill="none" xmlns="http://www.w3.org/2000/svg">
<g clip-path="url(#clip0_9_6)">
<path d="M226.486 139.034C204.512 139.034 186.432 120.954 186.432 98.9799V40.4606C186.432 18.4868 204.512 0.40625 226.486 0.40625C248.46 0.40625 266.54 18.4868 266.54 40.4606V98.9799C266.54 120.954 248.46 139.034 226.486 139.034ZM226.486 384.474C204.512 384.474 186.432 366.393 186.432 344.419V285.9C186.432 263.926 204.512 245.846 226.486 245.846C248.46 245.846 266.54 263.926 266.54 285.9V344.419C266.54 366.393 248.46 384.474 226.486 384.474ZM378.466 232.494H319.946C297.826 232.494 279.892 214.561 279.892 192.44C279.892 170.319 297.826 152.386 319.946 152.386H378.466C400.586 152.386 418.52 170.319 418.52 192.44C418.52 214.561 400.586 232.494 378.466 232.494ZM133.026 232.494H74.5067C52.386 232.494 34.4524 214.561 34.4524 192.44C34.4524 170.319 52.386 152.386 74.5067 152.386H133.026C155.147 152.386 173.08 170.319 173.08 192.44C173.08 214.561 155.147 232.494 133.026 232.494Z" fill="#F5F5F5"/>
<path d="M1022.69 1122.15C1000.71 1122.15 982.632 1104.07 982.632 1082.1V1023.58C982.632 1001.61 1000.71 983.526 1022.69 983.526C1044.66 983.526 1062.74 1001.61 1062.74 1023.58V1082.1C1062.74 1104.07 1044.66 1122.15 1022.69 1122.15ZM1022.69 1367.59C1000.71 1367.59 982.632 1349.51 982.632 1327.54V1269.02C982.632 1247.05 1000.71 1228.97 1022.69 1228.97C1044.66 1228.97 1062.74 1247.05 1062.74 1269.02V1327.54C1062.74 1349.51 1044.66 1367.59 1022.69 1367.59ZM1174.67 1215.61H1116.15C1094.03 1215.61 1076.09 1197.68 1076.09 1175.56C1076.09 1153.44 1094.03 1135.51 1116.15 1135.51H1174.67C1196.79 1135.51 1214.72 1153.44 1214.72 1175.56C1214.72 1197.68 1196.79 1215.61 1174.67 1215.61ZM929.226 1215.61H870.707C848.586 1215.61 830.652 1197.68 830.652 1175.56C830.652 1153.44 848.586 1135.51 870.707 1135.51H929.226C951.347 1135.51 969.28 1153.44 969.28 1175.56C969.28 1197.68 951.347 1215.61 929.226 1215.61Z" fill="#F5F5F5"/>
<g filter="url(#filter0_d_9_6)">
<path d="M856.421 438.6V877.249L788.667 850.922L776.312 738.527V456.545L818.665 398.223L856.421 438.6Z" fill="#0087A5"/>
<path d="M696.203 1037.47C784.689 1037.47 856.421 965.734 856.421 877.249C856.421 788.763 784.689 717.031 696.203 717.031C607.718 717.031 535.986 788.763 535.986 877.249C535.986 965.734 607.718 1037.47 696.203 1037.47Z" fill="#21AFD1"/>
<path d="M1054.93 146.524L1141.31 238.219L1054.93 394.167L776.312 456.545V240.972C776.312 222.227 789.316 205.992 807.608 201.879L1054.93 146.524Z" fill="#21AFD1"/>
<path d="M1333.55 331.789V770.437L1276.82 729.566L1253.44 631.716V349.733L1290.45 302.773L1333.55 331.789Z" fill="#13A0BD"/>
<path d="M1313.05 692.08C1288.28 648.079 1243.09 617.55 1192.91 611.413C1141.68 605.146 1089.68 624.471 1054.93 662.611C1046.98 671.321 1013.11 710.35 1013.11 770.437C1013.12 830.508 1046.97 869.523 1054.93 878.237C1084.22 910.414 1126.47 930.654 1173.33 930.654C1261.66 930.654 1333.55 858.77 1333.55 770.437C1333.55 743.085 1326.47 715.921 1313.05 692.08ZM1333.55 134.161V331.789L1054.93 394.167V146.524L1284.73 95.0678C1286.86 94.5899 1303.82 91.0971 1318.54 102.892C1333.25 114.681 1333.55 131.977 1333.55 134.161Z" fill="#1FBEE4"/>
</g>
<g filter="url(#filter1_d_9_6)">
<path d="M422.979 675.055V1113.68L353.012 1069.09L342.871 974.955V692.972L375.51 633.436L422.979 675.055Z" fill="#11BD6A"/>
<path d="M262.762 1273.89C351.248 1273.89 422.979 1202.16 422.979 1113.68C422.979 1025.19 351.248 953.459 262.762 953.459C174.276 953.459 102.545 1025.19 102.545 1113.68C102.545 1202.16 174.276 1273.89 262.762 1273.89Z" fill="#39E592"/>
<path d="M695.829 416.33V581.888C695.787 585.207 695.228 597.648 685.623 608.46C677.706 617.376 668.12 620.137 664.534 620.981L342.871 692.972V477.4C342.871 458.654 355.875 442.419 374.166 438.307L647.016 377.237C649.145 376.759 666.101 373.267 680.822 385.061C695.536 396.851 695.829 414.146 695.829 416.33Z" fill="#39E592"/>
</g>
</g>
<defs>
<filter id="filter0_d_9_6" x="515.517" y="69.8433" width="877.562" height="1023.25" filterUnits="userSpaceOnUse" color-interpolation-filters="sRGB">
<feFlood flood-opacity="0" result="BackgroundImageFix"/>
<feColorMatrix in="SourceAlpha" type="matrix" values="0 0 0 0 0 0 0 0 0 0 0 0 0 0 0 0 0 0 127 0" result="hardAlpha"/>
<feOffset dx="19.5312" dy="15.625"/>
<feGaussianBlur stdDeviation="20"/>
<feComposite in2="hardAlpha" operator="out"/>
<feColorMatrix type="matrix" values="0 0 0 0 0.129412 0 0 0 0 0.686275 0 0 0 0 0.819608 0 0 0 0.6 0"/>
<feBlend mode="normal" in2="BackgroundImageFix" result="effect1_dropShadow_9_6"/>
<feBlend mode="normal" in="SourceGraphic" in2="effect1_dropShadow_9_6" result="shape"/>
</filter>
<filter id="filter1_d_9_6" x="82.0759" y="352.013" width="673.285" height="977.506" filterUnits="userSpaceOnUse" color-interpolation-filters="sRGB">
<feFlood flood-opacity="0" result="BackgroundImageFix"/>
<feColorMatrix in="SourceAlpha" type="matrix" values="0 0 0 0 0 0 0 0 0 0 0 0 0 0 0 0 0 0 127 0" result="hardAlpha"/>
<feOffset dx="19.5312" dy="15.625"/>
<feGaussianBlur stdDeviation="20"/>
<feComposite in2="hardAlpha" operator="out"/>
<feColorMatrix type="matrix" values="0 0 0 0 0.0666667 0 0 0 0 0.741176 0 0 0 0 0.415686 0 0 0 0.6 0"/>
<feBlend mode="normal" in2="BackgroundImageFix" result="effect1_dropShadow_9_6"/>
<feBlend mode="normal" in="SourceGraphic" in2="effect1_dropShadow_9_6" result="shape"/>
</filter>
<clipPath id="clip0_9_6">
<rect width="1367.19" height="1367.19" fill="white" transform="translate(0.40625 0.40625)"/>
</clipPath>
</defs>
</svg>
